<svg width="98" height="98" viewBox="0 0 98 98" fill="none" xmlns="http://www.w3.org/2000/svg">
<path d="M65.0215 45.9594C66.5028 45.9594 67.7112 46.4272 68.6468 47.3628C69.1146 47.8306 69.4849 48.3373 69.7578 48.8831C70.0306 49.4288 70.206 50.4813 70.284 52.0406H59.759C59.9149 50.4813 60.1293 49.4483 60.4021 48.9415C60.675 48.4348 61.0064 47.9475 61.3962 47.4797C62.3317 46.4662 63.5402 45.9594 65.0215 45.9594ZM39.8783 44.5561C39.4105 44.8679 38.8842 45.1798 38.2995 45.4916C37.7148 45.8035 37.0326 45.9594 36.253 45.9594H30.6396V36.7208H35.4344C36.292 36.7208 37.0326 36.8182 37.6563 37.0131C38.28 37.208 38.8648 37.3835 39.4105 37.5394C40.58 38.1631 41.1647 39.3715 41.1647 41.1647C41.1647 42.8799 40.7359 44.0103 39.8783 44.5561ZM39.7613 52.2745C40.463 52.6643 40.9893 53.1126 41.3401 53.6193C41.6909 54.1261 41.8663 54.8473 41.8663 55.7828C41.8663 58.1217 41.1257 59.681 39.6444 60.4606C38.7868 60.9284 37.6563 61.1623 36.253 61.1623H30.6396V52.0406H36.3699C37.1496 52.0406 37.8123 52.0211 38.358 51.9821C38.9037 51.9431 39.3715 52.0406 39.7613 52.2745ZM49 0C55.7828 0 62.1368 1.2864 68.0621 3.85919C73.9873 6.43198 79.1718 9.92084 83.6158 14.3258C88.0597 18.7307 91.568 23.9153 94.1408 29.8795C96.7136 35.8437 98 42.2172 98 49C98 55.7828 96.7136 62.1368 94.1408 68.0621C91.568 73.9873 88.0597 79.1718 83.6158 83.6158C79.1718 88.0597 73.9873 91.568 68.0621 94.1408C62.1368 96.7136 55.7828 98 49 98C42.2172 98 35.8437 96.7136 29.8795 94.1408C23.9153 91.568 18.7307 88.0597 14.3258 83.6158C9.92084 79.1718 6.43198 73.9873 3.85919 68.0621C1.2864 62.1368 0 55.7828 0 49C0 42.2172 1.2864 35.8437 3.85919 29.8795C6.43198 23.9153 9.92084 18.7307 14.3258 14.3258C18.7307 9.92084 23.9153 6.43198 29.8795 3.85919C35.8437 1.2864 42.2172 0 49 0ZM47.4797 62.0979C48.4932 60.3827 49 58.4336 49 56.2506C49 54.2235 48.5712 52.4304 47.7136 50.8711C46.778 49.3898 45.4527 48.2983 43.7375 47.5967C44.829 47.0509 45.6866 46.3492 46.3103 45.4916C47.4018 44.1663 47.9475 42.3731 47.9475 40.1122C47.9475 37.9292 47.4018 36.0581 46.3103 34.4988C44.673 31.926 41.7884 30.6396 37.6563 30.6396H21.401V67.3604H36.6038C37.4614 67.3604 38.28 67.3214 39.0597 67.2434C39.8393 67.1655 40.58 67.0485 41.2816 66.8926C42.685 66.5807 43.9714 65.957 45.1408 65.0215C46.1543 64.0859 46.934 63.1114 47.4797 62.0979ZM58.1217 36.7208H70.401V30.6396H58.1217V36.7208ZM76.4821 55.0811V52.9761L76.4236 51.3389L76.3652 50.0525C76.0533 48.1034 75.4296 46.3882 74.494 44.9069C73.9483 43.9714 73.3441 43.1917 72.6814 42.568C72.0187 41.9443 71.2975 41.4376 70.5179 41.0477C68.8027 40.1901 66.9706 39.7613 65.0215 39.7613C61.6691 39.7613 58.9014 40.9698 56.7184 43.3866C54.6134 45.7255 53.5609 49.1559 53.5609 53.6778C53.5609 58.4336 54.7303 61.9029 57.0692 64.0859C59.3302 66.113 62.0589 67.1265 65.2554 67.1265C68.9976 67.1265 71.8823 65.8011 73.9093 63.1504C74.611 62.3707 75.1372 61.6301 75.4881 60.9284C75.8389 60.2267 76.0923 59.2912 76.2482 58.1217H70.0501C69.8942 59.2912 69.6993 59.8954 69.4654 59.9344C69.2315 59.9734 68.9976 60.0708 68.7637 60.2267C68.3739 60.6165 67.8866 60.9674 67.3019 61.2792C66.7172 61.5911 66.074 61.747 65.3723 61.747C64.1249 61.747 63.0334 61.3962 62.0979 60.6945C61.3182 60.1488 60.7335 59.4666 60.3437 58.648C59.9539 57.8294 59.72 56.6404 59.642 55.0811H76.4821Z" fill="black"/>
</svg>
