<svg width="98" height="98" viewBox="0 0 98 98" fill="none" xmlns="http://www.w3.org/2000/svg">
<path d="M48.9415 0C55.7324 0 62.094 1.28793 68.0263 3.8638C73.9586 6.43967 79.1493 9.9327 83.5986 14.3429C88.0478 18.7531 91.5603 23.9243 94.1362 29.8566C96.7121 35.7889 98 42.1505 98 48.9415C98 55.7324 96.7121 62.094 94.1362 68.0263C91.5603 73.9586 88.0478 79.1493 83.5986 83.5986C79.1493 88.0478 73.9586 91.5603 68.0263 94.1362C62.094 96.7121 55.7324 98 48.9415 98C42.1505 98 35.7889 96.7121 29.8566 94.1362C23.9243 91.5603 18.7531 88.0478 14.3429 83.5986C9.9327 79.1493 6.43967 73.9586 3.8638 68.0263C1.28793 62.094 0 55.7324 0 48.9415C0 42.1505 1.28793 35.7889 3.8638 29.8566C6.43967 23.9243 9.9327 18.7531 14.3429 14.3429C18.7531 9.9327 23.9243 6.43967 29.8566 3.8638C35.7889 1.28793 42.1505 0 48.9415 0ZM33.7204 36.7646H21.4265V76.5735H33.7204V36.7646ZM27.5149 33.6033C29.2322 33.6033 30.6957 33.0179 31.9056 31.8471C33.1155 30.6762 33.7204 29.2322 33.7204 27.5149C33.7204 25.7977 33.1155 24.3536 31.9056 23.1828C30.6957 22.0119 29.2322 21.4265 27.5149 21.4265C25.7977 21.4265 24.3536 22.0119 23.1828 23.1828C22.0119 24.3536 21.4265 25.7977 21.4265 27.5149C21.4265 29.2322 22.0119 30.6762 23.1828 31.8471C24.3536 33.0179 25.7977 33.6033 27.5149 33.6033ZM76.5735 53.5078C76.5735 50.6977 75.7929 47.9462 74.2318 45.2533C72.6706 42.5603 70.6412 40.5113 68.1434 39.1063C65.8797 37.8574 63.2453 37.1939 60.2401 37.1159C57.235 37.0378 54.4835 37.5452 51.9857 38.638V36.7646H39.8088V76.5735H51.9857V52.2198L57.1374 49.7611C57.7618 49.4488 58.601 49.2927 59.6547 49.2927C60.7085 49.2927 61.5476 49.4879 62.172 49.8781C62.6404 50.1123 63.1087 50.6197 63.5771 51.4002C64.0454 52.1808 64.2796 52.8833 64.2796 53.5078V76.5735H76.5735V53.5078Z" fill="black"/>
</svg>
